<svg width="729.000000" height="81.000000" viewBox="0 0 729 81" fill="none" xmlns="http://www.w3.org/2000/svg" xmlns:xlink="http://www.w3.org/1999/xlink">
	<desc>
			Created with Pixso.
	</desc>
	<defs>
		<clipPath id="clip3_5">
			<rect id="кнопка 1" width="729.000000" height="81.000000" fill="white" fill-opacity="0"/>
		</clipPath>
		<linearGradient id="paint_linear_3_6_0" x1="364.500000" y1="0.000000" x2="364.500000" y2="81.000000" gradientUnits="userSpaceOnUse">
			<stop offset="0.156274" stop-color="#516C7C"/>
			<stop offset="1.000000" stop-color="#051826"/>
		</linearGradient>
		<linearGradient id="paint_linear_3_6_1" x1="364.500000" y1="0.000000" x2="364.500000" y2="81.000000" gradientUnits="userSpaceOnUse">
			<stop stop-color="#C0D3DE"/>
			<stop offset="1.000000" stop-color="#516C7C"/>
		</linearGradient>
		<radialGradient id="paint_radial_3_7_0" cx="0.000000" cy="0.000000" r="1.000000" gradientUnits="userSpaceOnUse" gradientTransform="translate(364.5 40.9998) rotate(0) scale(312.223 2831.27)">
			<stop offset="0.178152" stop-color="#111212"/>
			<stop offset="0.998964" stop-color="#08253A" stop-opacity="0.968627"/>
		</radialGradient>
	</defs>
	<rect id="кнопка 1" width="729.000000" height="81.000000" fill="#FFFFFF" fill-opacity="0"/>
	<g clip-path="url(#clip3_5)">
		<path id="Vector" d="M723.73 37.66C720.5 36.96 717.62 35.61 715.19 33.91C710.33 30.52 707.18 25.91 704.91 21.34C700.3 12.07 690.91 6.48 683.58 3.35C678.3 1.11 672.25 0 666.16 0L62.82 0C56.71 0 50.68 1.11 45.4 3.35C38.06 6.48 28.67 12.07 24.07 21.34C21.79 25.91 18.64 30.52 13.79 33.91C11.37 35.61 8.48 36.96 5.24 37.66C3.35 38.06 0 38.53 0 40.5C0 42.46 3.35 42.93 5.26 43.33C8.5 44.03 11.37 45.38 13.8 47.08C18.66 50.48 21.81 55.08 24.08 59.65C28.69 68.92 38.08 74.51 45.41 77.64C50.69 79.88 56.74 81 62.83 81L666.17 81C672.28 81 678.32 79.88 683.59 77.64C690.93 74.51 700.32 68.92 704.92 59.65C707.2 55.08 710.35 50.47 715.2 47.08C717.62 45.38 720.51 44.03 723.75 43.33C725.64 42.93 729 42.46 729 40.5C729 38.53 725.64 38.06 723.73 37.66Z" fill="url(#paint_linear_3_6_0)" fill-opacity="1.000000" fill-rule="nonzero"/>
		<path id="Vector" d="M24.08 59.65C28.69 68.92 38.08 74.51 45.41 77.64C50.69 79.88 56.74 81 62.83 81L666.17 81C672.28 81 678.32 79.88 683.59 77.64C690.93 74.51 700.32 68.92 704.92 59.65C707.2 55.08 710.35 50.47 715.2 47.08C717.62 45.38 720.51 44.03 723.75 43.33C725.64 42.93 729 42.46 729 40.5C729 38.53 725.64 38.06 723.73 37.66C720.5 36.96 717.62 35.61 715.19 33.91C710.33 30.52 707.18 25.91 704.91 21.34C700.3 12.07 690.91 6.48 683.58 3.35C678.3 1.11 672.25 0 666.16 0L62.82 0C56.71 0 50.68 1.11 45.4 3.35C38.06 6.48 28.67 12.07 24.07 21.34C21.79 25.91 18.64 30.52 13.79 33.91C11.37 35.61 8.48 36.96 5.24 37.66C3.35 38.06 0 38.53 0 40.5C0 42.46 3.35 42.93 5.26 43.33C8.5 44.03 11.37 45.38 13.8 47.08C18.66 50.48 21.81 55.08 24.08 59.65ZM15.51 36.36Q15.51 36.37 15.51 36.37Q12.92 38.19 10.06 39.32Q8.24 40.05 6.32 40.49Q7.82 40.84 9.27 41.36Q12.55 42.55 15.52 44.62L15.52 44.62Q22.33 49.39 26.77 58.32L26.77 58.32Q31.88 68.61 46.59 74.88L46.59 74.88Q53.91 78 62.83 78L666.17 78Q675.09 78 682.42 74.88L682.42 74.88Q697.12 68.61 702.24 58.32L702.24 58.31Q706.69 49.37 713.48 44.63L713.48 44.62Q716.07 42.8 718.94 41.66Q720.75 40.94 722.67 40.5Q721.17 40.15 719.73 39.63Q716.44 38.44 713.47 36.37Q706.67 31.62 702.22 22.68L702.22 22.67Q697.11 12.38 682.4 6.11L682.4 6.11Q675.08 3 666.16 3L62.82 3Q53.9 3 46.57 6.11L46.57 6.11Q31.87 12.38 26.75 22.67L26.75 22.68Q22.3 31.62 15.51 36.36Z" fill="url(#paint_linear_3_6_1)" fill-opacity="1.000000" fill-rule="evenodd"/>
		<path id="Vector" d="M652.88 70L76.11 70C53.95 70 36 57.01 36 41C36 24.98 53.95 12 76.11 12L652.88 12C675.04 12 693 24.98 693 41C693 57.01 675.04 70 652.88 70Z" fill="url(#paint_radial_3_7_0)" fill-opacity="1.000000" fill-rule="nonzero"/>
	</g>
</svg>
