<svg width="375.000000" height="53.000000" viewBox="0 0 375 53" fill="none" xmlns="http://www.w3.org/2000/svg" xmlns:xlink="http://www.w3.org/1999/xlink">
	<desc>
			Created with Pixso.
	</desc>
	<defs>
		<clipPath id="clip2_2">
			<rect id="кнопка 1" width="375.000000" height="53.000000" fill="white" fill-opacity="0"/>
		</clipPath>
		<linearGradient id="paint_linear_2_3_0" x1="187.500000" y1="0.000000" x2="187.500000" y2="53.000000" gradientUnits="userSpaceOnUse">
			<stop offset="0.156274" stop-color="#516C7C"/>
			<stop offset="1.000000" stop-color="#051826"/>
		</linearGradient>
		<linearGradient id="paint_linear_2_3_1" x1="187.500000" y1="0.000000" x2="187.500000" y2="53.000000" gradientUnits="userSpaceOnUse">
			<stop stop-color="#C0D3DE"/>
			<stop offset="1.000000" stop-color="#516C7C"/>
		</linearGradient>
		<radialGradient id="paint_radial_2_4_0" cx="0.000000" cy="0.000000" r="1.000000" gradientUnits="userSpaceOnUse" gradientTransform="translate(187.5 25.7428) rotate(0) scale(160.389 1144.66)">
			<stop offset="0.178152" stop-color="#111212"/>
			<stop offset="0.998964" stop-color="#08253A" stop-opacity="0.968627"/>
		</radialGradient>
	</defs>
	<rect id="кнопка 1" width="375.000000" height="53.000000" fill="#FFFFFF" fill-opacity="0"/>
	<g clip-path="url(#clip2_2)">
		<path id="Vector" d="M372.29 24.64C370.62 24.19 369.15 23.3 367.89 22.19C365.4 19.97 363.78 16.95 362.61 13.96C360.24 7.89 355.41 4.24 351.63 2.19C348.92 0.72 345.81 0 342.67 0L32.31 0C29.17 0 26.07 0.72 23.35 2.19C19.58 4.24 14.75 7.89 12.38 13.96C11.21 16.95 9.59 19.97 7.09 22.19C5.85 23.3 4.36 24.19 2.7 24.64C1.72 24.9 0 25.21 0 26.5C0 27.78 1.72 28.09 2.7 28.35C4.37 28.8 5.85 29.69 7.1 30.8C9.6 33.03 11.22 36.04 12.39 39.03C14.76 45.1 19.59 48.75 23.36 50.8C26.07 52.27 29.19 53 32.32 53L342.68 53C345.82 53 348.93 52.27 351.64 50.8C355.41 48.75 360.24 45.1 362.61 39.03C363.78 36.04 365.4 33.02 367.9 30.8C369.15 29.69 370.63 28.8 372.3 28.35C373.27 28.09 375 27.78 375 26.5C375 25.21 373.27 24.9 372.29 24.64Z" fill="url(#paint_linear_2_3_0)" fill-opacity="1.000000" fill-rule="nonzero"/>
		<path id="Vector" d="M12.39 39.03C14.76 45.1 19.59 48.75 23.36 50.8C26.07 52.27 29.19 53 32.32 53L342.68 53C345.82 53 348.93 52.27 351.64 50.8C355.41 48.75 360.24 45.1 362.61 39.03C363.78 36.04 365.4 33.02 367.9 30.8C369.15 29.69 370.63 28.8 372.3 28.35C373.27 28.09 375 27.78 375 26.5C375 25.21 373.27 24.9 372.29 24.64C370.62 24.19 369.15 23.3 367.89 22.19C365.4 19.97 363.78 16.95 362.61 13.96C360.24 7.89 355.41 4.24 351.63 2.19C348.92 0.72 345.81 0 342.67 0L32.31 0C29.17 0 26.07 0.72 23.35 2.19C19.58 4.24 14.75 7.89 12.38 13.96C11.21 16.95 9.59 19.97 7.09 22.19C5.85 23.3 4.36 24.19 2.7 24.64C1.72 24.9 0 25.21 0 26.5C0 27.78 1.72 28.09 2.7 28.35C4.37 28.8 5.85 29.69 7.1 30.8C9.6 33.03 11.22 36.04 12.39 39.03ZM9.09 24.42Q9.09 24.43 9.08 24.43Q7.68 25.68 6.13 26.49Q7.68 27.31 9.09 28.56L9.09 28.57Q12.81 31.88 15.18 37.94L15.18 37.94Q15.57 38.95 16.08 39.89Q18.79 44.91 24.79 48.16L24.79 48.16Q25.48 48.54 26.21 48.84Q29.03 50 32.32 50L342.68 50Q345.97 50 348.78 48.84Q349.51 48.54 350.21 48.16L350.21 48.16Q356.2 44.91 358.91 39.89Q359.42 38.95 359.82 37.94L359.82 37.94Q362.19 31.87 365.9 28.57Q365.9 28.56 365.91 28.56Q367.31 27.31 368.86 26.5Q367.31 25.68 365.9 24.43L365.9 24.43Q362.19 21.13 359.81 15.05L359.81 15.05Q359.42 14.04 358.91 13.1Q356.2 8.08 350.21 4.83L350.2 4.83Q349.51 4.45 348.78 4.15Q345.96 3 342.67 3L32.31 3Q29.02 3 26.21 4.15Q25.48 4.45 24.78 4.83L24.78 4.83Q18.79 8.08 16.08 13.1Q15.57 14.04 15.17 15.05L15.17 15.05Q12.8 21.12 9.09 24.42Z" fill="url(#paint_linear_2_3_1)" fill-opacity="1.000000" fill-rule="evenodd"/>
		<path id="Vector" d="M335.64 44.67L39.35 44.67C27.97 44.67 18.75 36.19 18.75 25.74C18.75 15.28 27.97 6.81 39.35 6.81L335.64 6.81C347.02 6.81 356.25 15.28 356.25 25.74C356.25 36.19 347.02 44.67 335.64 44.67Z" fill="url(#paint_radial_2_4_0)" fill-opacity="1.000000" fill-rule="nonzero"/>
	</g>
</svg>
